External Loads File
version=1
nRows=70
nColumns=13
Range=5.000000e-03-10 seconds
endheader
time 	forceRightX 	forceRightY 	forceRightZ 	pointRightX 	pointRightY 	pointRightZ 	forceLeftX 	forceLeftY 	forceLeftZ 	pointLeftX 	pointLeftY 	pointLeftZ 		
7.505000 32.653833 -0.267824 -0.000000 0.176358 0.309529 -0.191291 -191.671153 491.919073 -0.000000 0.470246 0.341602 -0.444523
7.510000 31.698187 2.044482 -0.000000 0.176156 0.320073 -0.191373 -193.369496 505.549634 -0.000000 0.471251 0.330755 -0.444587
7.515000 31.023232 4.264608 -0.000000 0.176538 0.330620 -0.191479 -192.961495 519.865740 -0.000000 0.472103 0.319900 -0.444296
7.520000 30.514896 6.143708 -0.000000 0.177608 0.341327 -0.191778 -189.764408 535.034721 -0.000000 0.472232 0.308986 -0.444874
7.525000 30.002131 7.515511 -0.000000 0.179149 0.352043 -0.191966 -183.779836 550.783265 -0.000000 0.471165 0.298109 -0.443791
7.530000 29.286500 8.269672 -0.000000 0.181290 0.362805 -0.192069 -175.112028 566.672894 -0.000000 0.469944 0.287328 -0.444427
7.535000 28.180484 8.356960 -0.000000 0.184021 0.373286 -0.192239 -164.184331 582.100780 -0.000000 0.467898 0.276688 -0.444450
7.540000 26.554781 7.681456 -0.000000 0.187247 0.384218 -0.192528 -149.982630 596.836077 -0.000000 0.465170 0.266295 -0.444439
7.545000 24.279761 6.302124 -0.000000 0.190973 0.394523 -0.192759 -134.476210 609.860051 -0.000000 0.461845 0.256042 -0.444507
7.550000 21.299147 4.188959 -0.000000 0.195393 0.404749 -0.192980 -117.090744 620.918504 -0.000000 0.457847 0.246176 -0.444571
7.555000 17.580444 1.414692 -0.000000 0.199775 0.414790 -0.193841 -98.980108 629.478120 -0.000000 0.453294 0.236598 -0.444578
7.560000 13.153784 -2.003563 -0.000000 0.205647 0.424685 -0.193310 -78.703779 635.556277 -0.000000 0.448282 0.227263 -0.444549
7.565000 8.101716 -5.929764 -0.000000 0.211552 0.434132 -0.193698 -58.890811 638.714969 -0.000000 0.442686 0.218389 -0.444459
7.570000 2.542540 -10.296439 -0.000000 0.217877 0.443183 -0.193861 -39.221853 639.124511 -0.000000 0.436585 0.209920 -0.444439
7.575000 -3.398946 -14.993409 -0.000000 0.224544 0.451854 -0.194276 -20.214109 636.938302 -0.000000 0.430099 0.201938 -0.444368
7.580000 -9.580319 -19.894191 -0.000000 0.231080 0.459992 -0.195558 -2.686851 632.397538 -0.000000 0.423130 0.194418 -0.444277
7.585000 -15.994728 -24.786266 -0.000000 0.239308 0.467811 -0.194805 16.208884 625.765146 -0.000000 0.415744 0.187425 -0.444229
7.590000 -22.434799 -29.565191 -0.000000 0.246789 0.475076 -0.195420 32.413457 617.365137 -0.000000 0.407988 0.180828 -0.444142
7.595000 -28.932762 -33.982720 -0.000000 0.255048 0.481713 -0.195010 47.798976 607.502517 -0.000000 0.399956 0.174939 -0.444014
7.600000 -35.442787 -37.821445 -0.000000 0.263282 0.487701 -0.195745 61.585466 596.523568 -0.000000 0.391473 0.169557 -0.443948
7.605000 -42.007601 -40.765495 -0.000000 0.272003 0.493196 -0.195913 74.438417 584.587376 -0.000000 0.382758 0.164733 -0.443824
7.610000 -48.615495 -42.508116 -0.000000 0.281126 0.497937 -0.195882 86.510890 571.761962 -0.000000 0.373691 0.160498 -0.443737
7.615000 -55.162034 -42.819750 -0.000000 0.290406 0.501968 -0.196023 97.628791 558.020728 -0.000000 0.364329 0.157006 -0.443647
7.620000 -61.502891 -41.524015 -0.000000 0.299872 0.505376 -0.195967 107.961168 543.152715 -0.000000 0.354781 0.154181 -0.443518
7.625000 -67.432073 -38.531288 -0.000000 0.309434 0.508116 -0.195961 117.379012 526.921397 -0.000000 0.345100 0.152052 -0.443353
7.630000 -72.740525 -33.756450 -0.000000 0.319124 0.510055 -0.195964 125.946923 509.005685 -0.000000 0.335302 0.150513 -0.443213
7.635000 -77.191414 -27.191306 -0.000000 0.328729 0.511322 -0.195787 133.288328 489.162149 -0.000000 0.325445 0.149672 -0.443043
7.640000 -80.595494 -18.830673 -0.000000 0.338159 0.511873 -0.195658 139.192095 467.149316 -0.000000 0.315598 0.149473 -0.442892
7.645000 -82.842320 -8.652272 -0.000000 0.347364 0.511625 -0.195467 143.641577 442.737638 -0.000000 0.305757 0.149994 -0.442744
7.650000 -83.910146 3.362015 -0.000000 0.356303 0.510762 -0.195253 146.599141 415.781398 -0.000000 0.295925 0.151258 -0.442617
7.655000 -83.888751 17.187660 -0.000000 0.364884 0.509130 -0.194985 147.819288 386.346463 -0.000000 0.286237 0.153183 -0.442534
7.660000 -83.020416 32.850633 -0.000000 0.373136 0.506771 -0.194644 147.322363 354.640639 -0.000000 0.276747 0.155897 -0.442417
7.665000 -81.703819 50.434787 -0.000000 0.380936 0.503492 -0.194273 145.224697 321.129264 -0.000000 0.267290 0.159252 -0.442395
7.670000 -80.526344 70.012011 -0.000000 0.388373 0.499760 -0.194039 141.238904 286.740397 -0.000000 0.258288 0.163201 -0.442179
7.675000 -79.845174 92.082933 -0.000000 0.395326 0.493944 -0.193743 136.216699 252.026357 -0.000000 0.249474 0.167860 -0.442068
7.680000 -80.203660 116.896265 -0.000000 0.402262 0.488365 -0.193119 129.876169 218.176188 -0.000000 0.241001 0.173000 -0.441955
7.685000 -82.038634 144.736418 -0.000000 0.408595 0.482306 -0.192643 122.446278 186.184523 -0.000000 0.232926 0.178822 -0.441714
7.690000 -85.450422 175.823829 -0.000000 0.414576 0.475533 -0.192221 114.514813 156.733988 -0.000000 0.225232 0.185140 -0.441570
7.695000 -90.391894 210.051690 -0.000000 0.420297 0.468165 -0.192135 106.514833 130.409864 -0.000000 0.217930 0.192037 -0.441389
7.700000 -96.666749 246.936334 -0.000000 0.425866 0.460219 -0.191779 98.811666 107.591969 -0.000000 0.211057 0.199399 -0.441162
7.705000 -103.953281 285.596259 -0.000000 0.431087 0.451781 -0.191416 91.684618 88.408496 -0.000000 0.204366 0.207154 -0.440323
7.710000 -111.578982 324.912373 -0.000000 0.436550 0.442626 -0.191727 85.386847 72.693161 -0.000000 0.198427 0.215298 -0.440278
7.715000 -119.525736 363.337294 -0.000000 0.441606 0.433203 -0.191831 79.912963 60.312374 -0.000000 0.193108 0.223879 -0.440232
7.720000 -127.109423 399.572531 -0.000000 0.446542 0.423524 -0.191940 75.366625 50.821913 -0.000000 0.188279 0.232698 -0.440249
7.725000 -134.347959 432.344152 -0.000000 0.450751 0.413531 -0.191666 71.711074 43.855701 -0.000000 0.183960 0.241705 -0.440286
7.730000 -140.757356 460.996976 -0.000000 0.454666 0.403401 -0.192119 68.967159 38.891621 -0.000000 0.180265 0.251048 -0.440471
7.735000 -146.318898 485.279327 -0.000000 0.458391 0.393117 -0.192773 67.045928 35.440725 -0.000000 0.177127 0.260572 -0.440599
7.740000 -151.350331 505.352793 -0.000000 0.461691 0.382630 -0.192870 65.778317 33.030080 -0.000000 0.174538 0.270188 -0.440765
7.745000 -155.293171 521.990462 -0.000000 0.464584 0.372096 -0.192730 65.005076 31.114267 -0.000000 0.172546 0.280398 -0.440872
7.750000 -158.476168 535.844489 -0.000000 0.467026 0.361295 -0.192772 64.474948 29.386375 -0.000000 0.171209 0.290695 -0.441119
7.755000 -160.858548 547.670315 -0.000000 0.468974 0.350474 -0.192790 63.996340 27.645187 -0.000000 0.170308 0.301137 -0.441159
7.760000 -162.003374 558.213304 -0.000000 0.470325 0.339541 -0.192608 63.492423 25.779384 -0.000000 0.170064 0.311712 -0.441178
7.765000 -161.264669 568.065787 -0.000000 0.471117 0.328523 -0.192447 62.976508 23.728499 -0.000000 0.170344 0.322491 -0.441319
7.770000 -158.992161 577.318869 -0.000000 0.471424 0.317558 -0.192283 62.451610 21.536618 -0.000000 0.171228 0.333201 -0.441321
7.775000 -154.599621 586.167615 -0.000000 0.471088 0.306720 -0.192219 61.944654 19.085558 -0.000000 0.172812 0.344019 -0.441283
7.780000 -147.744329 594.618613 -0.000000 0.470168 0.295907 -0.192286 61.401061 16.237513 -0.000000 0.174916 0.354904 -0.441366
7.785000 -139.183400 602.351019 -0.000000 0.468534 0.285348 -0.192229 60.656495 12.962549 -0.000000 0.177560 0.365601 -0.441611
7.790000 -127.946697 609.444227 -0.000000 0.466251 0.274902 -0.192142 59.553183 9.086413 -0.000000 0.180614 0.376514 -0.441308
7.795000 -114.876613 615.541241 -0.000000 0.463087 0.264616 -0.191814 57.918695 4.680161 -0.000000 0.184439 0.387056 -0.441450
7.800000 -100.907974 620.351535 -0.000000 0.459494 0.254689 -0.191687 55.679558 -0.115856 -0.000000 0.188592 0.397355 -0.441335
7.805000 -85.668006 623.884431 -0.000000 0.455288 0.244968 -0.191466 52.850649 -5.228056 -0.000000 0.193252 0.407428 -0.441371
7.810000 -69.702821 626.041016 -0.000000 0.450448 0.235620 -0.191183 49.478815 -10.452576 -0.000000 0.198443 0.417208 -0.441364
7.815000 -53.164135 626.849258 -0.000000 0.445111 0.226685 -0.190984 45.623005 -15.595096 -0.000000 0.204164 0.426846 -0.441142
7.820000 -36.491462 626.353359 -0.000000 0.439189 0.218107 -0.190766 41.353485 -20.447286 -0.000000 0.210274 0.436149 -0.441012
7.825000 -19.983324 624.601721 -0.000000 0.432703 0.209964 -0.191060 36.750667 -24.854176 -0.000000 0.216824 0.445032 -0.441075
7.830000 -4.705364 621.568301 -0.000000 0.426162 0.202211 -0.191177 31.939424 -28.673725 -0.000000 0.223641 0.453431 -0.440661
7.835000 10.249726 617.195887 -0.000000 0.418971 0.195101 -0.190935 26.950900 -31.906167 -0.000000 0.230912 0.461389 -0.440514
7.840000 24.597088 611.317685 -0.000000 0.411276 0.188423 -0.190738 21.829877 -34.464441 -0.000000 0.238581 0.468620 -0.440509
7.845000 37.953811 603.760430 -0.000000 0.403235 0.182260 -0.190524 16.578744 -36.193504 -0.000000 0.246515 0.475153 -0.440380
7.850000 50.651502 594.283167 -0.000000 0.394930 0.176804 -0.190332 11.115965 -36.854168 -0.000000 0.254822 0.481378 -0.440230
